<?xml version="1.0" standalone="no"?>
<!DOCTYPE svg PUBLIC "-//W3C//DTD SVG 20010904//EN"
 "http://www.w3.org/TR/2001/REC-SVG-20010904/DTD/svg10.dtd">
<svg version="1.0" xmlns="http://www.w3.org/2000/svg"
 width="1635.000000pt" height="1635.000000pt" viewBox="0 0 1635.000000 1635.000000"
 preserveAspectRatio="xMidYMid meet">
<metadata>
Created by potrace 1.11, written by Peter Selinger 2001-2013
</metadata>
<g transform="translate(0.000000,1635.000000) scale(0.100000,-0.100000)"
fill="#000000" stroke="none">
<path d="M7851 13850 c-140 -19 -277 -82 -374 -170 -155 -141 -196 -414 -83
-546 48 -56 139 -103 216 -111 33 -3 57 -9 53 -13 -4 -4 -46 -22 -93 -40 -246
-96 -410 -208 -496 -337 -71 -107 -104 -226 -119 -435 l-7 -88 -84 0 -84 0 0
-40 c0 -109 136 -316 299 -457 170 -145 322 -230 671 -371 444 -180 585 -262
920 -537 58 -48 153 -119 212 -158 l107 -72 -63 -65 c-112 -117 -191 -255
-238 -418 l-23 -77 -5 -2375 c-5 -2187 -6 -2377 -22 -2405 -33 -62 -91 -106
-155 -120 l-33 -7 0 -145 0 -145 278 5 c245 4 286 7 357 27 167 46 314 132
440 258 125 125 197 250 248 430 21 76 21 93 27 997 5 843 7 926 24 995 40
167 140 312 277 406 97 66 170 93 287 107 l92 11 0 143 0 143 -341 0 -341 0 5
638 c5 644 9 716 43 770 18 27 79 30 130 6 136 -65 306 -399 349 -686 l6 -38
104 0 105 0 0 -1862 c0 -1332 -3 -1874 -11 -1903 -16 -57 -92 -131 -152 -147
l-47 -12 0 -144 0 -144 278 4 c247 4 286 7 357 27 285 79 547 307 645 563 67
173 63 112 70 1128 6 911 7 926 28 1009 64 243 262 436 499 486 37 8 87 15
111 15 l42 0 0 145 0 145 -341 0 -340 0 4 638 c4 645 8 716 43 770 19 29 79
30 133 2 128 -65 291 -370 336 -628 8 -47 15 -86 15 -88 0 -2 65 -4 145 -4
l145 0 0 481 c0 414 -2 483 -15 495 -8 9 -15 25 -15 37 0 43 -67 214 -115 296
-88 147 -238 287 -390 364 -246 123 -618 128 -872 12 -228 -105 -407 -299
-498 -539 -23 -60 -23 -60 -31 -31 -28 112 -127 271 -241 384 -46 46 -80 87
-75 90 4 3 29 21 56 39 29 21 80 43 134 57 315 85 575 211 800 386 32 26 102
95 156 154 198 220 306 461 337 756 17 160 9 253 -24 307 -55 86 -164 134
-259 113 -24 -6 -154 -66 -289 -134 -242 -123 -398 -190 -514 -222 l-61 -17
-124 65 c-69 36 -160 77 -202 91 l-77 26 -368 -1 c-558 -1 -818 -11 -871 -33
-23 -10 -116 -70 -205 -133 -267 -190 -374 -231 -612 -240 -157 -6 -272 9
-410 53 -209 67 -339 149 -426 267 l-49 68 -125 -7 c-69 -4 -125 -4 -125 1 0
4 18 27 39 52 22 24 52 77 68 116 72 184 185 249 616 357 433 108 570 165 693
289 72 72 105 130 133 231 25 90 28 220 6 305 -58 220 -269 369 -550 388 -44
3 -109 1 -144 -3z m248 -125 c244 -58 378 -243 343 -473 -17 -107 -58 -187
-133 -256 -106 -98 -219 -143 -596 -237 -247 -61 -370 -101 -474 -155 -30 -16
-58 -31 -63 -33 -5 -2 4 13 19 33 63 83 213 176 410 256 227 91 313 148 355
234 17 36 20 59 18 126 l-3 82 -50 -38 c-27 -21 -58 -48 -67 -60 -23 -28 -101
-61 -165 -69 -110 -15 -219 46 -244 137 -15 55 -1 154 31 222 86 181 374 288
619 231z m3461 -1520 c52 -27 60 -49 60 -170 0 -306 -94 -551 -303 -793 -203
-235 -473 -389 -892 -511 -117 -34 -143 -45 -216 -98 -145 -102 -207 -136
-262 -144 -68 -10 -340 -10 -552 0 l-170 8 -95 43 c-136 60 -238 130 -480 329
-236 194 -463 322 -835 471 -396 159 -543 245 -716 419 -87 88 -179 208 -179
235 0 3 60 6 133 6 l134 0 32 -45 c98 -137 353 -268 628 -321 106 -21 349 -24
438 -5 188 39 294 90 504 239 231 164 134 146 791 154 656 7 593 15 830 -104
85 -43 160 -78 166 -78 23 0 192 52 279 87 50 19 206 93 348 164 271 135 299
144 357 114z"/>
<path d="M11330 11858 c-140 -77 -288 -139 -443 -185 l-127 -38 0 -98 c0 -121
-20 -223 -70 -349 -21 -54 -36 -98 -34 -98 2 0 47 19 101 42 342 147 523 338
654 692 16 44 28 82 27 85 -2 4 -50 -19 -108 -51z m-140 -235 c-35 -59 -115
-154 -170 -202 -56 -47 -147 -111 -160 -111 -4 0 -4 17 1 38 4 20 11 74 15
119 l7 82 111 37 c61 20 134 47 161 59 28 12 52 21 54 19 2 -2 -7 -20 -19 -41z"/>
<path d="M9533 12986 c-117 -38 -230 -149 -368 -361 -54 -82 -119 -182 -146
-223 -27 -40 -49 -77 -49 -80 0 -9 1045 -5 1187 4 l101 6 -15 51 c-14 50 -142
251 -238 377 -65 84 -167 175 -232 205 -70 34 -174 43 -240 21z m197 -128 c65
-31 173 -145 269 -286 45 -68 81 -125 80 -126 -2 -2 -206 -7 -452 -11 l-449
-7 13 23 c34 65 179 270 222 317 110 116 204 143 317 90z"/>
<path d="M2486 10689 c-152 -20 -329 -79 -447 -149 -204 -121 -355 -320 -421
-555 l-23 -80 -5 -2375 c-5 -2294 -6 -2376 -24 -2413 -30 -60 -101 -107 -163
-107 -10 0 -13 -36 -13 -145 l0 -145 208 0 c114 0 246 5 292 10 183 23 363 82
495 165 168 104 317 320 377 546 l22 84 3 1218 c2 669 5 1217 7 1217 11 0 159
-88 214 -127 75 -54 124 -113 179 -219 56 -109 368 -809 639 -1436 430 -995
414 -964 530 -1087 165 -176 401 -300 686 -363 78 -17 142 -21 408 -25 l315
-5 108 -54 107 -54 0 205 0 206 -75 -2 c-66 -2 -79 1 -116 25 -118 78 -178
178 -355 586 -211 488 -313 720 -809 1845 -31 72 -81 166 -110 210 -64 97
-192 222 -295 289 -41 27 -79 53 -84 57 -4 4 16 22 45 41 130 83 264 222 361
373 50 76 233 401 428 755 488 888 531 962 610 1040 70 71 147 117 483 291
l298 154 -553 3 c-332 2 -597 -1 -663 -8 -369 -35 -722 -232 -943 -526 -54
-72 -240 -393 -552 -954 -364 -653 -414 -735 -519 -840 -77 -76 -156 -127
-264 -169 l-78 -29 3 871 3 872 23 62 c33 93 87 178 156 247 120 122 247 188
403 208 l83 11 0 143 0 144 -452 -1 c-249 -1 -484 -5 -522 -10z"/>
<path d="M14843 8883 c-62 -4 -63 -4 -63 -34 0 -62 -33 -187 -68 -259 -46 -95
-185 -239 -277 -287 -131 -68 -113 -66 -725 -73 l-555 -6 -90 -28 c-283 -87
-526 -309 -613 -561 -24 -71 -27 -94 -27 -205 1 -87 6 -145 18 -190 28 -104
128 -294 218 -415 114 -152 422 -457 764 -756 l280 -244 -265 -6 c-228 -5
-276 -9 -345 -28 -312 -84 -586 -346 -660 -631 -32 -125 -36 -201 -26 -528 10
-300 9 -326 -9 -409 -20 -94 -84 -523 -78 -528 2 -2 90 68 196 157 l192 160 0
129 c0 112 3 137 24 193 33 88 82 160 152 227 69 65 124 99 214 131 64 22 73
23 625 29 636 7 631 6 810 94 333 164 536 493 497 809 -48 381 -331 744 -1052
1347 l-184 154 234 6 c260 6 328 17 460 74 268 115 486 364 560 640 28 103 35
318 25 738 l-7 307 -82 -2 c-44 -1 -109 -3 -143 -5z"/>
<path d="M6735 8250 c-106 -12 -190 -37 -300 -89 -118 -57 -198 -115 -287
-210 -114 -121 -179 -235 -220 -391 l-23 -85 0 -990 0 -990 23 -85 c76 -279
251 -488 508 -606 145 -67 205 -76 535 -81 l296 -5 6 -68 c6 -67 19 -108 40
-121 6 -5 6 -18 -2 -39 -7 -22 -11 -146 -11 -376 l0 -343 -22 -16 c-21 -15
-10 -16 167 -13 183 3 192 4 248 30 74 35 166 123 205 196 123 235 28 542
-200 647 -68 31 -140 45 -235 45 -74 0 -117 13 -142 43 -10 13 22 15 246 19
293 6 350 16 502 88 112 54 191 111 276 201 84 88 134 162 185 272 80 170 90
260 90 795 l0 412 -149 0 -148 0 -6 -73 c-11 -152 -86 -297 -216 -420 -77 -72
-146 -115 -241 -148 -61 -21 -84 -23 -364 -27 -264 -3 -304 -2 -344 13 -178
69 -220 309 -77 448 63 61 100 67 415 67 152 0 303 5 336 11 355 62 669 355
761 707 20 79 25 122 25 227 1 156 -22 264 -81 391 -51 108 -89 162 -185 262
-100 104 -190 171 -297 221 -100 47 -173 67 -294 81 -102 11 -912 11 -1020 0z
m826 -843 c68 -45 87 -135 41 -196 -87 -117 -276 -60 -274 81 2 108 141 177
233 115z m77 -2936 c159 -82 200 -345 76 -490 -50 -58 -104 -83 -191 -89 l-73
-5 0 302 0 301 75 0 c55 0 86 -5 113 -19z"/>
<path d="M8063 4640 c-69 -42 -68 -34 -68 -440 0 -330 2 -368 18 -397 32 -59
50 -63 312 -63 226 0 238 1 267 21 38 28 58 75 58 136 l-1 48 -13 -31 c-8 -17
-21 -34 -31 -38 -9 -3 -106 -6 -216 -6 -249 0 -239 -6 -239 140 l0 100 134 0
c132 0 135 1 167 27 45 38 59 80 58 170 -1 71 -2 75 -11 41 -6 -22 -24 -50
-44 -68 l-35 -30 -134 0 -135 0 0 118 c0 103 3 121 18 135 16 15 47 17 229 17
226 0 233 -2 246 -55 2 -11 5 5 6 35 1 65 -22 110 -71 140 -30 18 -51 20 -258
20 -205 0 -228 -2 -257 -20z"/>
<path d="M8627 4653 c47 -9 48 -12 53 -439 l5 -404 33 -32 32 -33 228 -3 c223
-3 229 -2 256 19 43 34 56 77 55 176 -1 48 -4 77 -6 62 -5 -29 -38 -70 -70
-87 -14 -8 -84 -12 -197 -12 l-176 0 0 334 0 334 -27 33 c-36 42 -80 59 -150
58 -32 -1 -48 -4 -36 -6z"/>
<path d="M9425 4646 c-16 -8 -41 -26 -55 -41 l-25 -27 -5 -405 c-5 -386 -6
-405 -24 -419 -18 -13 -16 -14 28 -14 54 0 95 18 125 56 20 26 21 37 21 386 0
289 3 365 14 393 16 37 68 75 103 75 21 0 20 -3 -13 -33 l-36 -32 2 -402 c1
-392 0 -403 -20 -423 l-20 -20 125 0 c138 0 173 9 216 56 18 20 68 138 154
369 149 398 177 460 213 480 26 14 24 14 -41 15 -72 0 -125 -19 -160 -58 -10
-11 -72 -165 -138 -342 -129 -349 -137 -366 -168 -394 l-21 -19 0 357 c0 252
3 364 12 379 15 29 43 49 88 63 29 10 2 12 -155 12 -135 1 -199 -3 -220 -12z"/>
<path d="M10297 4621 l-42 -40 0 -385 0 -386 33 -32 32 -33 242 -3 c156 -2
251 1 267 8 46 19 71 68 70 136 -1 32 -4 49 -6 37 -9 -48 -33 -53 -246 -53
-197 0 -198 0 -222 25 -23 22 -25 32 -25 120 l0 95 131 0 c116 0 136 2 166 21
51 32 63 64 61 166 0 48 -3 74 -5 57 -4 -33 -35 -74 -70 -92 -13 -7 -73 -12
-152 -12 l-131 0 0 113 c0 168 -17 157 249 157 229 0 233 -1 244 -45 2 -11 5
5 6 35 1 66 -13 97 -58 127 -33 22 -41 23 -268 23 l-234 0 -42 -39z"/>
<path d="M11015 4646 c-16 -7 -39 -23 -50 -36 -19 -21 -20 -40 -25 -432 -5
-381 -6 -411 -23 -423 -18 -13 -18 -13 0 -17 26 -6 90 10 118 28 45 29 55 70
55 218 l0 136 83 0 82 0 65 -151 c86 -198 118 -229 237 -229 l56 0 -22 24
c-21 22 -171 344 -171 366 0 5 13 16 28 24 38 20 100 90 120 135 24 56 21 157
-7 213 -28 60 -98 122 -158 142 -61 21 -342 22 -388 2z m335 -124 c102 -51
108 -204 11 -264 -31 -20 -53 -23 -153 -27 l-118 -3 0 134 c0 175 2 178 133
178 68 0 101 -5 127 -18z"/>
<path d="M11622 4633 c31 -35 61 -84 182 -306 l98 -178 -4 -162 c-3 -181 -8
-196 -70 -225 -21 -9 -38 -19 -38 -22 0 -3 41 -3 91 0 89 5 91 5 125 42 l34
38 0 161 0 162 67 121 c141 255 186 332 216 364 l31 32 -64 0 c-121 0 -147
-24 -264 -243 l-53 -98 -54 101 c-30 55 -67 121 -84 147 -40 63 -98 93 -178
93 l-61 0 26 -27z"/>
</g>
</svg>
